<svg version="1.1" xmlns="http://www.w3.org/2000/svg" xmlns:xlink="http://www.w3.org/1999/xlink" width="41.5" height="41.5" viewBox="0,0,41.5,41.5"><g transform="translate(1.47072,-319.91066)"><g data-paper-data="{&quot;isPaintingLayer&quot;:true}" fill-rule="nonzero" stroke-width="0.5" stroke-linecap="butt" stroke-linejoin="miter" stroke-miterlimit="10" stroke-dasharray="" stroke-dashoffset="0" style="mix-blend-mode: normal"><path d="M-1.22072,361.16066v-41h41v41z" fill="#828282" stroke="#000000"/><path d="M11.77928,331.49399c1.38071,0 2.5,1.11929 2.5,2.5c0,1.38071 -1.11929,2.5 -2.5,2.5c-0.83736,0 -1.57856,-0.41168 -2.03226,-1.04368c-0.15152,0.02868 -0.30788,0.04368 -0.46774,0.04368c-1.38071,0 -2.5,-1.11929 -2.5,-2.5c0,-0.06883 0.00278,-0.13701 0.00824,-0.20444c-0.88735,-0.38389 -1.50824,-1.26722 -1.50824,-2.29556c0,-1.38071 1.11929,-2.5 2.5,-2.5c1.38071,0 2.5,1.11929 2.5,2.5c0,0.06883 -0.00278,0.13701 -0.00824,0.20444c0.41849,0.18105 0.77772,0.47319 1.0405,0.83924c0.15152,-0.02868 0.30788,-0.04368 0.46774,-0.04368z" fill="#ffffff" stroke="none"/><path d="M24.27928,334.49399c0,-1.38071 1.11929,-2.5 2.5,-2.5c0.18502,0 0.36534,0.0201 0.53891,0.05823c0.18207,-1.02115 0.98412,-1.82767 2.00297,-2.01635c0.21518,-1.16192 1.23389,-2.04188 2.45812,-2.04188c1.38071,0 2.5,1.11929 2.5,2.5c0,1.22423 -0.87996,2.24294 -2.04188,2.45812c-0.21518,1.16192 -1.23389,2.04188 -2.45812,2.04188c-0.18502,0 -0.36534,-0.0201 -0.53891,-0.05823c-0.20861,1.17001 -1.23112,2.05823 -2.46109,2.05823c-1.38071,0 -2.5,-1.11929 -2.5,-2.5z" fill="#ffffff" stroke="none"/></g></g></svg>