<svg version="1.1" xmlns="http://www.w3.org/2000/svg" xmlns:xlink="http://www.w3.org/1999/xlink" width="59.75" height="43.41667" viewBox="0,0,59.75,43.41667"><g transform="translate(1.47072,-317.99399)"><g data-paper-data="{&quot;isPaintingLayer&quot;:true}" fill-rule="nonzero" stroke-width="0.5" stroke-linecap="butt" stroke-linejoin="miter" stroke-miterlimit="10" stroke-dasharray="" stroke-dashoffset="0" style="mix-blend-mode: normal"><path d="M-1.22072,361.16066v-41h41v41z" fill="#828282" stroke="#000000"/><path d="M11.77928,331.49399c1.38071,0 2.5,1.11929 2.5,2.5c0,1.38071 -1.11929,2.5 -2.5,2.5c-0.83736,0 -1.57856,-0.41168 -2.03226,-1.04368c-0.15152,0.02868 -0.30788,0.04368 -0.46774,0.04368c-1.38071,0 -2.5,-1.11929 -2.5,-2.5c0,-0.06883 0.00278,-0.13701 0.00824,-0.20444c-0.88735,-0.38389 -1.50824,-1.26722 -1.50824,-2.29556c0,-1.38071 1.11929,-2.5 2.5,-2.5c1.38071,0 2.5,1.11929 2.5,2.5c0,0.06883 -0.00278,0.13701 -0.00824,0.20444c0.41849,0.18105 0.77772,0.47319 1.0405,0.83924c0.15152,-0.02868 0.30788,-0.04368 0.46774,-0.04368z" fill="#ffffff" stroke="none"/><path d="M24.27928,334.49399c0,-1.38071 1.11929,-2.5 2.5,-2.5c0.18502,0 0.36534,0.0201 0.53891,0.05823c0.18207,-1.02115 0.98412,-1.82767 2.00297,-2.01635c0.21518,-1.16192 1.23389,-2.04188 2.45812,-2.04188c1.38071,0 2.5,1.11929 2.5,2.5c0,1.22423 -0.87996,2.24294 -2.04188,2.45812c-0.21518,1.16192 -1.23389,2.04188 -2.45812,2.04188c-0.18502,0 -0.36534,-0.0201 -0.53891,-0.05823c-0.20861,1.17001 -1.23112,2.05823 -2.46109,2.05823c-1.38071,0 -2.5,-1.11929 -2.5,-2.5z" fill="#ffffff" stroke="none"/><path d="M29.27928,347.49399c0,-1.38071 1.11929,-2.5 2.5,-2.5c1.38071,0 2.5,1.11929 2.5,2.5c0,1.20965 -0.85912,2.21864 -2.00049,2.45009c0.00033,0.0166 0.00049,0.03324 0.00049,0.04992c0,1.38071 -1.11929,2.5 -2.5,2.5c-0.8178,0 -1.54389,-0.39267 -2,-0.99976c-0.45611,0.60709 -1.1822,0.99976 -2,0.99976c-0.71535,0 -1.36053,-0.30045 -1.81623,-0.78205c-0.42752,0.76489 -1.24525,1.28205 -2.18377,1.28205c-0.23223,0 -0.45707,-0.03166 -0.67043,-0.09091c-0.36367,0.93122 -1.26958,1.59091 -2.32957,1.59091c-1.22119,0 -2.23788,-0.8756 -2.4565,-2.03324c-0.42502,0.33402 -0.961,0.53324 -1.5435,0.53324c-0.90231,0 -1.69297,-0.47802 -2.13256,-1.19464c-0.33518,0.98558 -1.2685,1.69463 -2.36744,1.69463c-0.81786,0 -1.544,-0.39273 -2.0001,-0.99989c-0.38525,-0.2894 -0.68417,-0.68752 -0.85121,-1.1488c-0.96159,-0.34822 -1.64869,-1.26953 -1.64869,-2.35131c0,-1.38071 1.11929,-2.5 2.5,-2.5c1.08179,0 2.0031,0.6871 2.35132,1.6487c0.46127,0.16704 0.85938,0.46596 1.14878,0.8512c0.25201,0.18931 0.46708,0.42514 0.63246,0.69474c0.33518,-0.98557 1.26851,-1.69463 2.36744,-1.69463c1.2212,0 2.23788,0.8756 2.4565,2.03324c0.42502,-0.33402 0.961,-0.53324 1.5435,-0.53324c0.23223,0 0.45707,0.03167 0.67043,0.09091c0.36367,-0.93122 1.26958,-1.59091 2.32957,-1.59091c0.71535,0 1.36053,0.30045 1.81623,0.78205c0.42752,-0.76489 1.24525,-1.28205 2.18377,-1.28205c0.8178,0 1.54388,0.39267 2,0.99976c0.3607,-0.4801 0.89026,-0.82611 1.50049,-0.94985c-0.00033,-0.0166 -0.00049,-0.03324 -0.00049,-0.04992z" fill="#ffffff" stroke="none"/><path d="M55.77928,317.99399c2.5,0 2.5,2.5 2.5,2.5c0,1 0,4.5 0,5.5c0,0 0,2.28154 -2.17958,2.48547c-1.0511,0.72223 -2.15306,1.38454 -3.05265,2.2823c-1.41038,1.40752 -2.33851,3.37369 -3.47397,5.11113c0.64276,1.22321 -0.21367,2.50785 -0.21367,2.50785l-2.66913,2.57923c-1.95229,0.32012 -3.93265,0.52779 -5.911,0.53402c0,0 -2.11078,0 -2.4533,-1.93952c-0.34212,-0.42769 -0.5467,-0.97019 -0.5467,-1.56048c0,-1.38071 1.11929,-2.5 2.5,-2.5c0.45705,0 0.88545,0.12265 1.25408,0.33683c0.07928,-0.0486 0.12788,-0.0729 0.12788,-0.0729c3.96715,-1.86568 4.8219,-5.49877 7.85027,-8.5317c0.11479,-0.11497 2.05671,-1.57509 3.28858,-2.49872h0.00001c0.03925,-0.30876 0.15248,-0.83457 0.47918,-1.29847c0,-0.14501 0,-0.29003 0,-0.43504v-2.5c0,0 0,-2.5 2.5,-2.5z" fill="#ffffff" stroke="none"/><path d="M29.27928,325.49399c0,2.5 -2.5,2.5 -2.5,2.5c-0.83333,0 -2.66667,0 -3.5,0c0,0 -2.5,0 -2.5,-2.5c0,-2.5 2.5,-2.5 2.5,-2.5c0.83333,0 1.66667,0 2.5,0h1c0,0 2.5,0 2.5,2.5z" fill="#ffffff" stroke="none"/></g></g></svg>