<svg version="1.1" xmlns="http://www.w3.org/2000/svg" xmlns:xlink="http://www.w3.org/1999/xlink" width="346.67942" height="310.32106" viewBox="0,0,346.67942,310.32106"><g transform="translate(-10.43769,-3.3486)"><g data-paper-data="{&quot;isPaintingLayer&quot;:true}" fill-rule="nonzero" stroke="none" stroke-linecap="butt" stroke-linejoin="miter" stroke-miterlimit="10" stroke-dasharray="" stroke-dashoffset="0" style="mix-blend-mode: normal"><text transform="translate(11.02103,28.5986) scale(0.5,0.5)" font-size="40" xml:space="preserve" fill="#ffffff" fill-rule="nonzero" stroke="none" stroke-width="1" stroke-linecap="butt" stroke-linejoin="miter" stroke-miterlimit="10" stroke-dasharray="" stroke-dashoffset="0" font-family="Pixel" font-weight="normal" text-anchor="start" style="mix-blend-mode: normal"><tspan x="0" dy="0">ARE YOU SURE? YES         NO</tspan></text><path d="M233.24325,34.60461v-30.03003h30.03003v30.03003z" fill="#00ff18" stroke-width="0"/><path d="M305.81082,35.10011v-30.03003h30.03003v30.03003z" fill="#ff0000" stroke-width="0"/><path d="M305.81082,35.10011v-30.03003h30.03003v30.03003z" fill="#ff0000" stroke-width="0"/><path d="M125.88589,180.00001c0,-25.70695 20.8396,-46.54655 46.54655,-46.54655c25.70695,0 46.54655,20.8396 46.54655,46.54655c0,25.70695 -20.8396,46.54655 -46.54655,46.54655c-25.70695,0 -46.54655,-20.8396 -46.54655,-46.54655z" fill="#00ff18" stroke-width="0"/><path d="M125.88589,180.00001c0,-25.70695 20.8396,-46.54655 46.54655,-46.54655c25.70695,0 46.54655,20.8396 46.54655,46.54655c0,25.70695 -20.8396,46.54655 -46.54655,46.54655c-25.70695,0 -46.54655,-20.8396 -46.54655,-46.54655z" fill="#00ff18" stroke-width="0"/><path d="M125.88589,180.00001c0,-25.70695 20.8396,-46.54655 46.54655,-46.54655c25.70695,0 46.54655,20.8396 46.54655,46.54655c0,25.70695 -20.8396,46.54655 -46.54655,46.54655c-25.70695,0 -46.54655,-20.8396 -46.54655,-46.54655z" fill="#00ff18" stroke-width="0"/><path d="M264.02402,181.50151c0,-25.70695 20.8396,-46.54655 46.54655,-46.54655c25.70695,0 46.54655,20.8396 46.54655,46.54655c0,25.70695 -20.8396,46.54655 -46.54655,46.54655c-25.70695,0 -46.54655,-20.8396 -46.54655,-46.54655z" fill="#00ff18" stroke-width="0"/><path d="M264.02402,181.50151c0,-25.70695 20.8396,-46.54655 46.54655,-46.54655c25.70695,0 46.54655,20.8396 46.54655,46.54655c0,25.70695 -20.8396,46.54655 -46.54655,46.54655c-25.70695,0 -46.54655,-20.8396 -46.54655,-46.54655z" fill="#ff0000" stroke-width="0"/><text transform="translate(90.06757,287.73521) scale(0.5,0.5)" font-size="40" xml:space="preserve" fill="#ffffff" fill-rule="nonzero" stroke="none" stroke-width="1" stroke-linecap="butt" stroke-linejoin="miter" stroke-miterlimit="10" stroke-dasharray="" stroke-dashoffset="0" font-family="Pixel" font-weight="normal" text-anchor="start" style="mix-blend-mode: normal"><tspan x="0" dy="0">YOU ARE PAYING</tspan></text><text transform="translate(193.46472,308.41965) scale(0.5,0.5)" font-size="40" xml:space="preserve" fill="#ffffff" fill-rule="nonzero" stroke="none" stroke-width="1" stroke-linecap="butt" stroke-linejoin="miter" stroke-miterlimit="10" stroke-dasharray="" stroke-dashoffset="0" font-family="Pixel" font-weight="normal" text-anchor="start" style="mix-blend-mode: normal"><tspan x="0" dy="0">TO</tspan></text></g></g></svg>