<svg version="1.1" xmlns="http://www.w3.org/2000/svg" xmlns:xlink="http://www.w3.org/1999/xlink" width="211.34054" height="168.07947" viewBox="0,0,211.34054,168.07947"><g transform="translate(-49.40946,-159.25)"><g data-paper-data="{&quot;isPaintingLayer&quot;:true}" fill-rule="nonzero" stroke-width="0.5" stroke-linecap="butt" stroke-linejoin="miter" stroke-miterlimit="10" stroke-dasharray="" stroke-dashoffset="0" style="mix-blend-mode: normal"><path d="M219.5,200.5v-41h41v41z" fill="#828282" stroke="#000000"/><path d="M49.51151,327.22622c0.00702,-0.00703 0.02087,-0.01909 0.04096,-0.03575c-0.04799,0.04638 -0.09566,0.09272 -0.14301,0.139c0.03375,-0.03449 0.06775,-0.06892 0.10205,-0.10326z" fill="#ffffff" stroke="none"/><path d="M229.57082,173.0231c-1.56174,-1.95217 0.39043,-3.51391 0.39043,-3.51391l2.62677,-1.27023c1.31347,0.15895 2.83809,-0.25482 3.94041,0.47686c6.83801,4.53882 0.12946,11.55566 -5.41044,11.96887c-3.19896,0.2386 -8.07082,-1.64025 -9.51765,-4.75739c-1.43041,-3.08175 0.46571,-8.76351 3.02994,-10.69267c0.98249,-0.73916 2.34752,-0.73196 3.52128,-1.09794c0,0 2.41559,-0.64416 3.05974,1.77143c0.64416,2.41559 -1.77143,3.05974 -1.77143,3.05974c-1.90941,0.3522 -4.3386,2.4965 -3.26696,4.93667c0.18771,0.42742 2.67174,1.48963 2.7742,1.51956c1.21409,0.3546 2.58726,0.41675 3.75987,-0.1669c2.43013,-1.20956 2.08595,-2.17971 -0.43085,-2.02795l0.80859,0.18431c0,0 -1.95217,1.56174 -3.51391,-0.39043z" fill="#ffffff" stroke="none"/><path d="M247.9724,172.09039c-0.44721,-2.45967 2.01246,-2.90689 2.01246,-2.90689l3.49486,-0.17386c1.04682,0.55054 2.41203,0.7198 3.14047,1.65163c6.35851,8.13389 -7.93476,13.24454 -13.67255,9.47936c-5.7053,-3.74386 -3.09833,-12.52848 1.74458,-15.67546c3.37409,-2.19253 6.80643,-1.85144 10.42667,-0.86216c0,0 2.40381,0.6868 1.71701,3.09061c-0.6868,2.40381 -3.09061,1.71701 -3.09061,1.71701c-2.94417,-0.89205 -5.63677,-0.98936 -7.69686,1.66798c-0.82264,1.06114 -2.46574,4.85031 -0.49553,5.79439c1.15323,0.5526 4.30891,0.6896 5.52445,0.31389c2.49174,-0.77017 2.49745,-1.9056 0.3071,-2.63744l-0.50514,0.55341c0,0 -2.45967,0.44721 -2.90689,-2.01246z" fill="#ffffff" stroke="none"/><path d="M253.6108,192.31528c-0.49029,2.45145 -2.94174,1.96116 -2.94174,1.96116l-0.5851,-0.13881c-6.18407,-0.41228 -13.81219,-2.03396 -18.68985,2.62115c0,0 -1.84289,1.68931 -3.5322,-0.15357c-1.68931,-1.84289 0.15357,-3.5322 0.15357,-3.5322c6.3951,-5.69554 14.43104,-4.45562 22.40106,-3.9243l1.23308,0.22483c0,0 2.45145,0.49029 1.96116,2.94174z" fill="#ffffff" stroke="none"/></g></g></svg>